# xmcd CD database file
#
# Track frame offsets:
#	150
#	21371
#	34652
#	49463
#	65486
#	82699
#	98244
#	113453
#	127182
#	139193
#
# Disc length: 2039 seconds
#
# Revision: 0
# Processed by: cddbd v1.4PL0 Copyright (c) Steve Scherf et al.
# Submitted via: CDex 1.51
#
DISCID=8407f50a
DTITLE=Espresso - I'm Just a Lucky So and So
DYEAR=2000
DGENRE=Jazz
TTITLE0=I'm Just A Lucky So and So
TTITLE1=Crazy Rhythm
TTITLE2=Nature Boy
TTITLE3=My Romance
TTITLE4=Embracable You
TTITLE5=On A Clear Day
TTITLE6=Come Rain Or Shine
TTITLE7=Triste
TTITLE8=It Had To Be You
TTITLE9=Caravan
EXTD=YEAR: 2000
EXTT0=
EXTT1=
EXTT2=
EXTT3=
EXTT4=
EXTT5=
EXTT6=
EXTT7=
EXTT8=
EXTT9=
PLAYORDER=
